<svg width="22" height="21" viewBox="0 0 22 21" fill="none" xmlns="http://www.w3.org/2000/svg">
<path d="M13.112 0.495999C14.936 0.495999 16.512 0.831999 17.84 1.504C19.168 2.176 20.176 3.12 20.864 4.336C21.568 5.536 21.92 6.936 21.92 8.536C21.92 9.816 21.696 11.04 21.248 12.208C20.816 13.376 20.184 14.328 19.352 15.064C18.536 15.8 17.568 16.168 16.448 16.168C15.632 16.168 14.992 15.992 14.528 15.64C14.064 15.272 13.776 14.76 13.664 14.104C13.168 14.744 12.544 15.248 11.792 15.616C11.04 15.984 10.256 16.168 9.44 16.168C8.208 16.168 7.24 15.8 6.536 15.064C5.848 14.312 5.504 13.296 5.504 12.016C5.504 10.8 5.752 9.664 6.248 8.608C6.76 7.552 7.472 6.712 8.384 6.088C9.296 5.448 10.32 5.128 11.456 5.128C12.848 5.128 13.824 5.6 14.384 6.544L14.6 5.344H16.976L15.776 12.208C15.728 12.544 15.704 12.84 15.704 13.096C15.704 13.512 15.784 13.824 15.944 14.032C16.12 14.24 16.424 14.344 16.856 14.344C17.464 14.344 17.984 14.048 18.416 13.456C18.848 12.848 19.168 12.104 19.376 11.224C19.6 10.344 19.712 9.488 19.712 8.656C19.712 6.624 19.12 5.072 17.936 4C16.752 2.928 15.032 2.392 12.776 2.392C10.888 2.392 9.192 2.84 7.688 3.736C6.2 4.632 5.032 5.864 4.184 7.432C3.336 9 2.912 10.744 2.912 12.664C2.912 14.712 3.52 16.272 4.736 17.344C5.952 18.416 7.688 18.952 9.944 18.952C11.464 18.952 12.792 18.672 13.928 18.112L14.288 19.936C12.832 20.56 11.2 20.872 9.392 20.872C7.648 20.872 6.12 20.544 4.808 19.888C3.496 19.232 2.48 18.296 1.76 17.08C1.04 15.88 0.68 14.48 0.68 12.88C0.68 10.592 1.208 8.504 2.264 6.616C3.336 4.728 4.816 3.24 6.704 2.152C8.592 1.048 10.728 0.495999 13.112 0.495999ZM10.28 14.056C10.952 14.056 11.56 13.864 12.104 13.48C12.664 13.08 13.104 12.56 13.424 11.92C13.744 11.264 13.904 10.568 13.904 9.832C13.904 9.064 13.688 8.44 13.256 7.96C12.84 7.464 12.248 7.216 11.48 7.216C10.792 7.216 10.184 7.432 9.656 7.864C9.144 8.28 8.744 8.824 8.456 9.496C8.184 10.168 8.048 10.872 8.048 11.608C8.048 12.36 8.232 12.96 8.6 13.408C8.968 13.84 9.528 14.056 10.28 14.056Z" fill="#F5C39F"/>
</svg>
