<svg width="182" height="162" viewBox="0 0 182 162" fill="none" xmlns="http://www.w3.org/2000/svg">
<path d="M71.8601 52.0524C59.385 56.6557 48.9606 60.7278 48.4479 61.259C47.9352 61.7901 58.8723 66.2164 72.5437 71.1737L97.4939 80.2032L123.128 70.9967C141.926 64.0918 147.907 61.259 145.515 60.1967C137.312 56.8328 97.8357 43.377 96.1268 43.5541C95.2723 43.5541 84.3352 47.4492 71.8601 52.0524Z" fill="#F5C39F"/>
<path d="M61.0939 89.2328C61.0939 107.292 58.5305 104.636 84.5061 113.311C103.988 119.862 104.5 119.685 105.526 103.751L106.38 90.6492L113.216 88.1705C131.672 81.7967 134.577 80.2033 134.577 76.6623C134.577 74.5377 133.723 73.4754 132.527 73.8295C131.331 74.3606 122.786 77.3705 113.729 80.5574L96.9812 86.577V97.9082C96.9812 106.229 96.4686 109.062 94.9305 108.354C93.7343 108 87.0695 105.698 80.4047 103.397L67.9296 99.3246V87.4623C67.9296 76.3082 66.7333 73.4754 61.7775 73.4754C61.4357 73.4754 61.0939 80.5574 61.0939 89.2328Z" fill="#F5C39F"/>
<path d="M128.596 87.6393C126.716 88.5245 121.59 90.4721 117.146 92.2426C111.336 94.3672 108.944 96.1376 108.944 98.4393C108.944 100.387 109.115 101.803 109.456 101.803C109.627 101.803 115.267 99.8557 121.761 97.554C130.989 94.1901 133.894 92.4196 134.236 89.5868C134.919 85.5147 133.894 85.3376 128.596 87.6393Z" fill="white"/>
<path d="M120.906 102.511C112.191 105.698 109.627 107.292 109.285 110.479C108.602 115.082 108.773 114.905 125.691 108.531C132.185 106.052 134.577 104.105 134.577 101.626C134.577 97.554 134.748 97.554 120.906 102.511Z" fill="white"/>
</svg>
