<svg width="18" height="25" viewBox="0 0 18 25" fill="none" xmlns="http://www.w3.org/2000/svg">
<path d="M9 0C5.85629 0 3.31579 2.85281 3.31579 6.38298V9.04255H1.42105C0.616159 9.04255 0 9.73446 0 10.6383V23.4043C0 24.3081 0.616159 25 1.42105 25H16.5789C17.3838 25 18 24.3081 18 23.4043V10.6383C18 9.73446 17.3838 9.04255 16.5789 9.04255H14.6842V6.38298C14.6842 2.85281 12.1437 0 9 0ZM9 1.06383C11.6367 1.06383 13.7368 3.42212 13.7368 6.38298V9.04255H4.26316V6.38298C4.26316 3.42212 6.36328 1.06383 9 1.06383ZM9 14.3617C9.80489 14.3617 10.4211 15.0536 10.4211 15.9574C10.4211 16.4353 10.2323 16.8551 9.94737 17.121V18.617C9.94737 19.203 9.52179 19.6809 9 19.6809C8.47821 19.6809 8.05263 19.203 8.05263 18.617V17.121C7.76768 16.8551 7.57895 16.4353 7.57895 15.9574C7.57895 15.0536 8.19511 14.3617 9 14.3617Z" fill="#F5C39F"/>
</svg>
